# xmcd
#
# Track frame offsets:
#	150
#	14460
#	38950
#	76275
#	101632
#	140415
#	172575
#	202785
#	212655
#	245147
#	270735
#
# Disc length: 4240 seconds
#
# Revision: 1
# Processed by: cddbd v1.5.1PL0 Copyright (c) Steve Scherf et al.
# Submitted via: CDex 1.50Beta5
#
DISCID=8f108e0b
DTITLE=JAYE'S MASS CHOIR - JOYSPEL
DYEAR=1900
DGENRE=
TTITLE0=HIS EYE IS ON THE SPARROW
TTITLE1=神の言葉を伝えよう
TTITLE2=BEAUTIFUL PRAISE SONG(美しき祈りと賛美の歌)
TTITLE3=JOYSPEL
TTITLE4=I LOVE GOD
TTITLE5=HAPPY BIRTHDAY JESUS CHRIST
TTITLE6=歩けイエスと共に
TTITLE7=AMAZING GRACE
TTITLE8=YOU ARE MY FATHER(あなたこそ我が父)
TTITLE9=君がいてよかった
TTITLE10=JOYFUL JOYFUL メドレー<JOYFUL JOYFUL〜JESUS IS MY ONLY FRIEND〜PRECIOUS LORD〜HIGER&HIGHER〜JOYFUL JOYFUL>
EXTD=
EXTT0=
EXTT1=
EXTT2=
EXTT3=
EXTT4=
EXTT5=
EXTT6=
EXTT7=
EXTT8=
EXTT9=
EXTT10=
PLAYORDER=
